<?xml version="1.0" standalone="no"?>
<!DOCTYPE svg PUBLIC "-//W3C//DTD SVG 20010904//EN"
 "http://www.w3.org/TR/2001/REC-SVG-20010904/DTD/svg10.dtd">
<svg version="1.0" xmlns="http://www.w3.org/2000/svg"
 width="256.000000pt" height="256.000000pt" viewBox="0 0 256.000000 256.000000"
 preserveAspectRatio="xMidYMid meet">
<metadata>
Created by potrace 1.14, written by Peter Selinger 2001-2017
</metadata>
<g transform="translate(0.000000,256.000000) scale(0.100000,-0.100000)"
fill="#000000" stroke="none">
<path d="M620 2551 c-85 -26 -164 -92 -201 -170 -20 -39 -24 -66 -27 -177 l-4
-130 -35 -2 c-46 -4 -99 -45 -114 -89 -16 -50 -12 -198 6 -237 21 -41 58 -67
106 -73 36 -5 39 -8 39 -38 0 -30 -3 -33 -40 -38 -79 -10 -128 -78 -117 -161
7 -53 59 -103 116 -112 l40 -6 3 -547 c3 -544 3 -546 26 -591 38 -78 103 -136
183 -164 38 -13 137 -15 774 -13 l730 2 56 27 c68 34 112 81 147 156 l26 57 1
823 c0 790 -1 824 -18 837 -26 19 -25 81 0 105 18 16 19 31 18 156 -1 77 -8
157 -15 179 -29 97 -124 183 -222 205 -58 12 -1437 13 -1478 1z"/>
</g>
</svg>
